# xmcd
#
# Track frame offsets: 
#        150
#        14567
#        31866
#        49395
#        65342
#        85209
#        104760
#        133987
#        147093
#        171499
#        185634
#        198966
#
# Disc length: 2845 seconds
#
# Revision: 2
# Processed by: cddbd v1.5.2PL0 Copyright (c) Steve Scherf et al.
# Submitted via: ExactAudioCopy v0.99pb4
#
DISCID=b50b1b0c
DTITLE=Беломорканал - Урка Мишка
DYEAR=2000
DGENRE=Chorus
TTITLE0=Урка Мишка
TTITLE1=Ростовский волк
TTITLE2=Бог не фраер
TTITLE3=СИзо
TTITLE4=Лагеря
TTITLE5=Роза
TTITLE6=Жизнь ворам
TTITLE7=Опер окачурился
TTITLE8=Этап
TTITLE9=Падло
TTITLE10=Баня
TTITLE11=А... поворуем ?
EXTD=
EXTT0=
EXTT1=
EXTT2=
EXTT3=
EXTT4=
EXTT5=
EXTT6=
EXTT7=
EXTT8=
EXTT9=
EXTT10=
EXTT11=
PLAYORDER=
